<?xml version="1.0" encoding="UTF-8" standalone="no"?>
<!-- Created with Inkscape (http://www.inkscape.org/) -->

<svg
   xmlns:dc="http://purl.org/dc/elements/1.1/"
   xmlns:cc="http://creativecommons.org/ns#"
   xmlns:rdf="http://www.w3.org/1999/02/22-rdf-syntax-ns#"
   xmlns:svg="http://www.w3.org/2000/svg"
   xmlns="http://www.w3.org/2000/svg"
   xmlns:sodipodi="http://sodipodi.sourceforge.net/DTD/sodipodi-0.dtd"
   xmlns:inkscape="http://www.inkscape.org/namespaces/inkscape"
   version="1.1"
   id="svg19382"
   xml:space="preserve"
   width="800"
   height="800"
   viewBox="0 0 800 800"
   sodipodi:docname="car-silhouette-color-publicdomainvectors.org.svg"
   inkscape:version="0.92.4 (5da689c313, 2019-01-14)"><metadata
     id="metadata19388"><rdf:RDF><cc:Work
         rdf:about=""><dc:format>image/svg+xml</dc:format><dc:type
           rdf:resource="http://purl.org/dc/dcmitype/StillImage" /><dc:title></dc:title></cc:Work></rdf:RDF></metadata><defs
     id="defs19386"><clipPath
       clipPathUnits="userSpaceOnUse"
       id="clipPath19398"><path
         d="M 0,600 H 600 V 0 H 0 Z"
         id="path19396"
         inkscape:connector-curvature="0" /></clipPath></defs><sodipodi:namedview
     pagecolor="#ffffff"
     bordercolor="#666666"
     borderopacity="1"
     objecttolerance="10"
     gridtolerance="10"
     guidetolerance="10"
     inkscape:pageopacity="0"
     inkscape:pageshadow="2"
     inkscape:window-width="797"
     inkscape:window-height="480"
     id="namedview19384"
     showgrid="false"
     inkscape:zoom="0.295"
     inkscape:cx="400"
     inkscape:cy="400"
     inkscape:window-x="0"
     inkscape:window-y="0"
     inkscape:window-maximized="0"
     inkscape:current-layer="g19390" /><g
     id="g19390"
     inkscape:groupmode="layer"
     inkscape:label="car-silhouette-color-publicdomainvectors.org"
     transform="matrix(1.3333333,0,0,-1.3333333,0,800)"><g
       id="g19392"><g
         id="g19394"
         clip-path="url(#clipPath19398)"><path
           d="m 560.676,273.365 c -0.994,3.159 -1.979,6.72 -2.924,10.813 -4.377,1.649 -7.943,2.86 -10.982,3.797 l -26.502,-18.249 z"
           style="fill:#003ccc;fill-opacity:1;fill-rule:nonzero;stroke:none"
           id="path19400"
           inkscape:connector-curvature="0" /><path
           d="m 561.603,202.526 c 2.256,4.704 4.797,9.685 10.721,11.675 2.481,21.188 0.354,29.594 -3.416,38.557 L 515.27,220.363 Z"
           style="fill:#0056c8;fill-opacity:1;fill-rule:nonzero;stroke:none"
           id="path19402"
           inkscape:connector-curvature="0" /><path
           d="m 520.268,269.726 -4.998,-49.363 53.638,32.395 c -2.345,5.581 -5.329,11.377 -8.232,20.607 z"
           style="fill:#006ad4;fill-opacity:1;fill-rule:nonzero;stroke:none"
           id="path19404"
           inkscape:connector-curvature="0" /><path
           d="m 546.77,287.975 c -9.889,3.048 -14.196,3.201 -22.605,6.181 -0.282,0.1 -0.616,0.24 -0.997,0.413 l -2.9,-24.843 z"
           style="fill:#0074c4;fill-opacity:1;fill-rule:nonzero;stroke:none"
           id="path19406"
           inkscape:connector-curvature="0" /><path
           d="m 514.568,192.565 c 11.528,0.169 28.369,0.299 35.719,-0.213 6.514,-0.26 8.727,4.776 11.316,10.174 l -46.333,17.837 z"
           style="fill:#0063c3;fill-opacity:1;fill-rule:nonzero;stroke:none"
           id="path19408"
           inkscape:connector-curvature="0" /><path
           d="m 523.168,294.569 c -4.981,2.281 -18.131,10.751 -32.609,19.972 l 29.709,-44.815 z"
           style="fill:#0dc5cd;fill-opacity:1;fill-rule:nonzero;stroke:none"
           id="path19410"
           inkscape:connector-curvature="0" /><path
           d="m 456.869,168.449 c 12.309,0.221 23.135,6.506 29.619,15.997 l -22.664,32.376 z"
           style="fill:#0074ce;fill-opacity:1;fill-rule:nonzero;stroke:none"
           id="path19412"
           inkscape:connector-curvature="0" /><path
           d="m 486.488,184.446 c 4.016,5.877 6.366,12.983 6.37,20.637 0.005,4.786 -0.912,9.361 -2.581,13.561 l -26.453,-1.822 z"
           style="fill:#007fd1;fill-opacity:1;fill-rule:nonzero;stroke:none"
           id="path19414"
           inkscape:connector-curvature="0" /><path
           d="m 494.639,218.943 c 6.342,-13.424 8.115,-26.591 8.115,-26.591 0,0 4.971,0.113 11.814,0.213 l 0.702,27.798 z"
           style="fill:#007fd1;fill-opacity:1;fill-rule:nonzero;stroke:none"
           id="path19416"
           inkscape:connector-curvature="0" /><path
           d="m 465.43,240.6 -1.606,-23.778 26.453,1.822 c -4.267,10.741 -13.466,19.005 -24.847,21.956"
           style="fill:#0097de;fill-opacity:1;fill-rule:nonzero;stroke:none"
           id="path19418"
           inkscape:connector-curvature="0" /><path
           d="M 467.156,266.185 465.8,246.08 c 14.317,-3.55 23.313,-15.44 28.839,-27.137 l 20.631,1.42 z"
           style="fill:#0097de;fill-opacity:1;fill-rule:nonzero;stroke:none"
           id="path19420"
           inkscape:connector-curvature="0" /><path
           d="m 515.27,220.363 4.998,49.363 -53.112,-3.541 z"
           style="fill:#008dde;fill-opacity:1;fill-rule:nonzero;stroke:none"
           id="path19422"
           inkscape:connector-curvature="0" /><path
           d="m 520.268,269.726 -29.709,44.815 c -2.839,1.809 -5.729,3.646 -8.62,5.47 l -14.783,-53.826 z"
           style="fill:#0097e2;fill-opacity:1;fill-rule:nonzero;stroke:none"
           id="path19424"
           inkscape:connector-curvature="0" /><path
           d="m 423.877,347.505 c -8.744,1.906 -18.57,3.535 -28.393,4.808 l 14.604,-40.098 z"
           style="fill:#d4e200;fill-opacity:1;fill-rule:nonzero;stroke:none"
           id="path19426"
           inkscape:connector-curvature="0" /><path
           d="m 420.856,195.339 c 0.196,-0.709 0.412,-1.41 0.648,-2.102 l 16.482,-19.958 c 5.37,-3.081 11.595,-4.841 18.231,-4.838 0.218,0 0.434,0.004 0.652,0.008 l 6.955,48.373 z"
           style="fill:#008ad9;fill-opacity:1;fill-rule:nonzero;stroke:none"
           id="path19428"
           inkscape:connector-curvature="0" /><path
           d="m 467.156,266.185 14.783,53.826 c -2.097,1.325 -4.196,2.643 -6.274,3.94 l -65.577,-11.736 z"
           style="fill:#08e0e0;fill-opacity:1;fill-rule:nonzero;stroke:none"
           id="path19430"
           inkscape:connector-curvature="0" /><path
           d="m 475.665,323.951 c -11.171,6.969 -21.763,13.297 -28.703,16.541 -5.545,2.596 -13.691,4.964 -23.085,7.013 l -13.789,-35.29 z"
           style="fill:#7fdf17;fill-opacity:1;fill-rule:nonzero;stroke:none"
           id="path19432"
           inkscape:connector-curvature="0" /><path
           d="m 465.43,240.6 c -2.623,0.68 -5.363,1.079 -8.184,1.16 -2.207,0.062 -4.374,-0.071 -6.484,-0.385 l -30.056,-45.482 c 0.048,-0.186 0.1,-0.37 0.15,-0.554 l 42.968,21.483 z"
           style="fill:#009be2;fill-opacity:1;fill-rule:nonzero;stroke:none"
           id="path19434"
           inkscape:connector-curvature="0" /><path
           d="m 454.529,247.076 c 0.241,0.014 0.481,0.027 0.725,0.036 3.801,0.149 7.309,-0.229 10.546,-1.032 l 1.356,20.105 z"
           style="fill:#009be2;fill-opacity:1;fill-rule:nonzero;stroke:none"
           id="path19436"
           inkscape:connector-curvature="0" /><path
           d="m 419.555,206.163 c -0.01,-0.359 -0.016,-0.72 -0.016,-1.08 0.002,-3.174 0.407,-6.254 1.167,-9.19 l 30.056,45.482 c -17.241,-2.564 -30.692,-17.181 -31.207,-35.212"
           style="fill:#00afec;fill-opacity:1;fill-rule:nonzero;stroke:none"
           id="path19438"
           inkscape:connector-curvature="0" /><path
           d="m 376.139,284.722 36.999,-75.576 c 5.247,15.584 16.842,36.579 41.391,37.93 l 12.627,19.109 z"
           style="fill:#00afec;fill-opacity:1;fill-rule:nonzero;stroke:none"
           id="path19440"
           inkscape:connector-curvature="0" /><path
           d="m 376.139,284.722 91.017,-18.537 -57.068,46.03 z"
           style="fill:#00c5ef;fill-opacity:1;fill-rule:nonzero;stroke:none"
           id="path19442"
           inkscape:connector-curvature="0" /><path
           d="m 437.986,173.279 -16.482,19.958 c 2.899,-8.483 8.821,-15.564 16.482,-19.958"
           style="fill:#0074d4;fill-opacity:1;fill-rule:nonzero;stroke:none"
           id="path19444"
           inkscape:connector-curvature="0" /><path
           d="m 410.088,312.215 -14.604,40.098 c -8.252,1.069 -16.498,1.886 -24.097,2.408 L 354.895,329.71 Z"
           style="fill:#c8f008;fill-opacity:1;fill-rule:nonzero;stroke:none"
           id="path19446"
           inkscape:connector-curvature="0" /><path
           d="m 322.611,210.782 87.213,-14.162 c 0.594,3.059 1.625,7.512 3.314,12.526 l -36.999,75.576 z"
           style="fill:#00b0ed;fill-opacity:1;fill-rule:nonzero;stroke:none"
           id="path19448"
           inkscape:connector-curvature="0" /><path
           d="m 325.325,192.352 h 83.796 c 0,0 0.186,1.606 0.703,4.268 l -87.213,14.162 z"
           style="fill:#0081dd;fill-opacity:1;fill-rule:nonzero;stroke:none"
           id="path19450"
           inkscape:connector-curvature="0" /><path
           d="m 322.611,210.782 53.528,73.94 -60.193,-41.032 z"
           style="fill:#2bebcb;fill-opacity:1;fill-rule:nonzero;stroke:none"
           id="path19452"
           inkscape:connector-curvature="0" /><path
           d="m 354.895,329.71 21.244,-44.988 33.949,27.493 z"
           style="fill:#7bf383;fill-opacity:1;fill-rule:nonzero;stroke:none"
           id="path19454"
           inkscape:connector-curvature="0" /><path
           d="m 371.387,354.721 c -6.528,0.448 -12.577,0.677 -17.741,0.659 l 1.249,-25.67 z"
           style="fill:#f2cf00;fill-opacity:1;fill-rule:nonzero;stroke:none"
           id="path19456"
           inkscape:connector-curvature="0" /><path
           d="m 290.744,308.674 85.395,-23.952 -21.244,44.988 z"
           style="fill:#b8f828;fill-opacity:1;fill-rule:nonzero;stroke:none"
           id="path19458"
           inkscape:connector-curvature="0" /><path
           d="m 315.946,243.69 60.193,41.032 -85.395,23.952 z"
           style="fill:#95f58d;fill-opacity:1;fill-rule:nonzero;stroke:none"
           id="path19460"
           inkscape:connector-curvature="0" /><path
           d="m 308.479,192.352 h 16.846 l -2.714,18.43 z"
           style="fill:#149cc4;fill-opacity:1;fill-rule:nonzero;stroke:none"
           id="path19462"
           inkscape:connector-curvature="0" /><path
           d="m 325.826,355.091 c -14.806,-0.053 -31.411,-0.238 -45.443,-1.777 l 10.361,-44.64 z"
           style="fill:#ffd100;fill-opacity:1;fill-rule:nonzero;stroke:none"
           id="path19464"
           inkscape:connector-curvature="0" /><path
           d="m 354.895,329.71 -1.249,25.67 c -0.466,-0.002 -0.928,-0.005 -1.38,-0.011 -0.827,-0.012 -1.639,-0.027 -2.415,-0.052 -6.685,-0.21 -15.023,-0.194 -24.025,-0.226 l -35.082,-46.417 z"
           style="fill:#f9ea00;fill-opacity:1;fill-rule:nonzero;stroke:none"
           id="path19466"
           inkscape:connector-curvature="0" /><path
           d="m 290.744,308.674 -6.456,-60.402 31.658,-4.582 z"
           style="fill:#a3f31b;fill-opacity:1;fill-rule:nonzero;stroke:none"
           id="path19468"
           inkscape:connector-curvature="0" /><path
           d="m 273.249,203.076 -0.117,-10.724 h 35.347 l 14.132,18.43 z"
           style="fill:#47cf77;fill-opacity:1;fill-rule:nonzero;stroke:none"
           id="path19470"
           inkscape:connector-curvature="0" /><path
           d="m 284.288,248.272 38.323,-37.49 -6.665,32.908 z"
           style="fill:#42ea5a;fill-opacity:1;fill-rule:nonzero;stroke:none"
           id="path19472"
           inkscape:connector-curvature="0" /><path
           d="m 273.249,203.076 49.362,7.706 -38.323,37.49 z"
           style="fill:#52e242;fill-opacity:1;fill-rule:nonzero;stroke:none"
           id="path19474"
           inkscape:connector-curvature="0" /><path
           d="m 280.383,353.314 c -9.087,-0.996 -17.096,-2.557 -22.831,-5.021 0,0 -16.165,-10.05 -33.178,-20.965 l 66.37,-18.654 z"
           style="fill:#ffce00;fill-opacity:1;fill-rule:nonzero;stroke:none"
           id="path19476"
           inkscape:connector-curvature="0" /><path
           d="m 284.288,248.272 -61.981,77.729 c -1.039,-0.669 -2.079,-1.339 -3.118,-2.009 l -18.838,-72.804 z"
           style="fill:#f0c500;fill-opacity:1;fill-rule:nonzero;stroke:none"
           id="path19478"
           inkscape:connector-curvature="0" /><path
           d="m 290.744,308.674 -66.37,18.654 c -0.688,-0.441 -1.377,-0.884 -2.067,-1.327 l 61.981,-77.729 z"
           style="fill:#f6e100;fill-opacity:1;fill-rule:nonzero;stroke:none"
           id="path19480"
           inkscape:connector-curvature="0" /><path
           d="m 200.351,251.188 72.898,-48.112 11.039,45.196 z"
           style="fill:#afdf00;fill-opacity:1;fill-rule:nonzero;stroke:none"
           id="path19482"
           inkscape:connector-curvature="0" /><path
           d="m 257.067,192.352 h 16.065 l 0.117,10.724 z"
           style="fill:#b1b971;fill-opacity:1;fill-rule:nonzero;stroke:none"
           id="path19484"
           inkscape:connector-curvature="0" /><path
           d="m 184.73,206.409 4.667,-14.057 h 67.67 l 16.182,10.724 z"
           style="fill:#c2a20a;fill-opacity:1;fill-rule:nonzero;stroke:none"
           id="path19486"
           inkscape:connector-curvature="0" /><path
           d="m 184.73,206.409 88.519,-3.333 -72.898,48.112 z"
           style="fill:#d3b200;fill-opacity:1;fill-rule:nonzero;stroke:none"
           id="path19488"
           inkscape:connector-curvature="0" /><path
           d="m 219.189,323.992 c -10.858,-7.013 -21.432,-13.997 -27.745,-18.572 -5.922,-4.289 -13.96,-7.105 -23.61,-9.142 l 32.517,-45.09 z"
           style="fill:#fb9b00;fill-opacity:1;fill-rule:nonzero;stroke:none"
           id="path19490"
           inkscape:connector-curvature="0" /><path
           d="m 200.351,251.188 -32.517,45.09 c -11.005,-2.324 -24.107,-3.635 -38.559,-4.97 l -14.318,-35.745 z"
           style="fill:#f56500;fill-opacity:1;fill-rule:nonzero;stroke:none"
           id="path19492"
           inkscape:connector-curvature="0" /><path
           d="m 175.109,192.352 h 14.288 l -4.667,14.057 z"
           style="fill:#bc3600;fill-opacity:1;fill-rule:nonzero;stroke:none"
           id="path19494"
           inkscape:connector-curvature="0" /><path
           d="m 200.351,251.188 -85.394,4.375 13.656,-9.621 c 14.803,-2.316 24.059,-11.165 29.843,-21.023 l 26.274,-18.51 z"
           style="fill:#e07000;fill-opacity:1;fill-rule:nonzero;stroke:none"
           id="path19496"
           inkscape:connector-curvature="0" /><path
           d="m 166.801,201.759 c 1.067,-5.598 1.222,-9.407 1.222,-9.407 h 7.086 l 9.621,14.057 z"
           style="fill:#c22c00;fill-opacity:1;fill-rule:nonzero;stroke:none"
           id="path19498"
           inkscape:connector-curvature="0" /><path
           d="m 128.524,169.15 c 14.905,3.009 26.533,15.059 28.916,30.18 l -39.359,-10.209 z"
           style="fill:#c22c00;fill-opacity:1;fill-rule:nonzero;stroke:none"
           id="path19500"
           inkscape:connector-curvature="0" /><path
           d="m 157.44,199.33 c 0.296,1.875 0.451,3.796 0.451,5.753 0.008,19.845 -15.776,36.094 -35.612,36.66 -2.266,0.065 -4.489,-0.079 -6.653,-0.411 l 2.455,-52.211 z"
           style="fill:#d54200;fill-opacity:1;fill-rule:nonzero;stroke:none"
           id="path19502"
           inkscape:connector-curvature="0" /><path
           d="m 158.456,224.919 c 4.721,-8.049 7.127,-16.771 8.345,-23.16 l 17.929,4.65 z"
           style="fill:#d54200;fill-opacity:1;fill-rule:nonzero;stroke:none"
           id="path19504"
           inkscape:connector-curvature="0" /><path
           d="m 115.396,246.226 c 2.027,0.23 4.149,0.336 6.376,0.295 2.403,-0.042 4.681,-0.241 6.841,-0.579 l -13.656,9.621 z"
           style="fill:#d54200;fill-opacity:1;fill-rule:nonzero;stroke:none"
           id="path19506"
           inkscape:connector-curvature="0" /><path
           d="m 129.275,291.308 c -9.737,-0.9 -20.087,-1.809 -30.823,-3.044 -0.029,-0.004 -0.058,-0.007 -0.088,-0.011 l 16.593,-32.69 z"
           style="fill:#fc6300;fill-opacity:1;fill-rule:nonzero;stroke:none"
           id="path19508"
           inkscape:connector-curvature="0" /><path
           d="m 121.231,168.424 c 2.498,0 4.936,0.251 7.293,0.726 l -10.443,19.971 -26.122,-6.107 c 6.691,-8.862 17.312,-14.59 29.272,-14.59"
           style="fill:#be0006;fill-opacity:1;fill-rule:nonzero;stroke:none"
           id="path19510"
           inkscape:connector-curvature="0" /><path
           d="m 114.957,255.563 -16.593,32.69 c -9.906,-1.145 -18.323,-2.838 -25.392,-4.744 l -0.088,-39.61 z"
           style="fill:#f23700;fill-opacity:1;fill-rule:nonzero;stroke:none"
           id="path19512"
           inkscape:connector-curvature="0" /><path
           d="m 72.884,243.899 13.081,-15.854 c 6.225,9.009 15.538,16.599 29.431,18.181 l -0.439,9.337 z"
           style="fill:#db2f00;fill-opacity:1;fill-rule:nonzero;stroke:none"
           id="path19514"
           inkscape:connector-curvature="0" /><path
           d="M 115.626,241.332 C 104.565,239.634 95.083,232.974 89.6,223.64 l 28.481,-34.519 z"
           style="fill:#db2f00;fill-opacity:1;fill-rule:nonzero;stroke:none"
           id="path19516"
           inkscape:connector-curvature="0" /><path
           d="m 63.298,192.352 h 10.349 c 0,0 1.473,19.997 12.318,35.693 l -13.081,15.854 z"
           style="fill:#ca1500;fill-opacity:1;fill-rule:nonzero;stroke:none"
           id="path19518"
           inkscape:connector-curvature="0" /><path
           d="m 89.6,223.64 c -3.023,-5.147 -4.83,-11.106 -5.013,-17.494 -0.01,-0.354 -0.015,-0.708 -0.015,-1.063 0,-8.286 2.751,-15.93 7.387,-22.069 l 26.122,6.107 z"
           style="fill:#ca1500;fill-opacity:1;fill-rule:nonzero;stroke:none"
           id="path19520"
           inkscape:connector-curvature="0" /><path
           d="m 26.213,217.112 c 5.6,-5.381 15.815,-13.017 15.756,-24.76 h 21.329 l 9.586,51.547 z"
           style="fill:#c80b00;fill-opacity:1;fill-rule:nonzero;stroke:none"
           id="path19522"
           inkscape:connector-curvature="0" /><path
           d="m 51.261,275.386 c -6.305,-3.226 -9.107,-5.714 -9.107,-5.714 -5.653,-7.55 -10,-13.986 -13.187,-21.099 l 43.917,-4.674 z"
           style="fill:#e21c00;fill-opacity:1;fill-rule:nonzero;stroke:none"
           id="path19524"
           inkscape:connector-curvature="0" /><path
           d="m 72.972,283.509 c -9.63,-2.597 -16.755,-5.588 -21.711,-8.123 l 21.623,-31.487 z"
           style="fill:#f24600;fill-opacity:1;fill-rule:nonzero;stroke:none"
           id="path19526"
           inkscape:connector-curvature="0" /><path
           d="m 28.967,248.573 c -3.256,-7.262 -5.3,-15.231 -6.282,-25.81 -0.316,-1.585 1.212,-3.425 3.528,-5.651 l 46.671,26.787 z"
           style="fill:#cf1300;fill-opacity:1;fill-rule:nonzero;stroke:none"
           id="path19528"
           inkscape:connector-curvature="0" /></g></g></g></svg>